<?xml version="1.0" encoding="utf-8"?>
<!-- Generator: Adobe Illustrator 24.3.0, SVG Export Plug-In . SVG Version: 6.00 Build 0)  -->
<svg version="1.1" id="Layer_1" xmlns="http://www.w3.org/2000/svg" xmlns:xlink="http://www.w3.org/1999/xlink" x="0px" y="0px"
	 viewBox="0 0 1280 161.3" style="enable-background:new 0 0 1280 161.3;" xml:space="preserve">
<style type="text/css">
	.st0{fill:url(#SVGID_1_);}
	.st1{fill:url(#SVGID_2_);}
	.st2{fill:url(#SVGID_3_);}
	.st3{fill:#FFFFFF;}
	.st4{fill:#E5A209;}
	.st5{fill:url(#SVGID_4_);}
	.st6{fill:url(#SVGID_5_);}
	.st7{fill:url(#SVGID_6_);}
	.st8{fill:url(#SVGID_7_);}
	.st9{fill:url(#SVGID_8_);}
</style>
<g>
	<linearGradient id="SVGID_1_" gradientUnits="userSpaceOnUse" x1="148.9329" y1="78.8802" x2="217.4864" y2="78.8802">
		<stop  offset="0.5279" style="stop-color:#EFAF14"/>
		<stop  offset="1" style="stop-color:#CE8017"/>
	</linearGradient>
	<path class="st0" d="M215.37,62.75c-1.93-2.16-4.79-3.13-7.64-2.61l-24.82,4.56l11.53-16.93c2.95-0.1,5.3-2.51,5.3-5.48
		c0-3.03-2.46-5.49-5.49-5.49c-3.03,0-5.49,2.46-5.49,5.49c0,0.89,0.22,1.73,0.59,2.47L178.98,60L172,51.93
		c0.15-0.5,0.23-1.03,0.23-1.57c0-3.03-2.46-5.49-5.49-5.49s-5.49,2.46-5.49,5.49c0,3.03,2.46,5.49,5.49,5.49
		c0.27,0,0.54-0.03,0.8-0.06l8.76,10.13l-20.6,3.78c-3.92,0.72-6.77,4.14-6.77,8.12v24.3c0,3.71,2.5,6.99,6.08,7.97l38.78,10.58
		c0.74,0.2,1.49,0.3,2.21,0.3c3.56,0,6.8-2.31,7.87-5.91l13.26-44.44C217.96,67.85,217.3,64.9,215.37,62.75z M211.49,68.94
		l-13.26,44.44c-0.37,1.24-1.64,1.94-2.88,1.6l-38.78-10.58c-1.02-0.28-1.74-1.22-1.74-2.28v-24.3c0-1.14,0.81-2.12,1.93-2.32
		l52.03-9.56c0.16-0.03,0.31-0.04,0.45-0.04c0.91,0,1.5,0.53,1.73,0.79C211.25,66.98,211.83,67.79,211.49,68.94z"/>
	<g>
		<linearGradient id="SVGID_2_" gradientUnits="userSpaceOnUse" x1="234.9068" y1="115.5571" x2="235.7967" y2="115.5571">
			<stop  offset="0.5279" style="stop-color:#EFAF14"/>
			<stop  offset="1" style="stop-color:#CE8017"/>
		</linearGradient>
		<path class="st1" d="M234.91,115.4l0.89,0.31C235.27,115.48,234.91,115.4,234.91,115.4z"/>
		<linearGradient id="SVGID_3_" gradientUnits="userSpaceOnUse" x1="212.8253" y1="123.861" x2="244.7696" y2="123.861">
			<stop  offset="0.5279" style="stop-color:#EFAF14"/>
			<stop  offset="1" style="stop-color:#CE8017"/>
		</linearGradient>
		<path class="st2" d="M241.97,116.64c-1.56-0.77-3.95-0.96-6.18-0.93c1.22,0.53,3.33,1.85,3.94,4.89c0,0.01,0,0.01,0,0.01
			c0.31,1.51,0.24,3.43-0.49,5.87c-0.01,0.01-0.01,0.01-0.01,0.01c-0.24,1.63-0.73,3.36-1.46,4.99c-2.18,4.83-4.05,5.05-5.57,5.16
			c-1.52,0.11-11.7,0-11.7,0s-3.03,0.35-3.84-3.82c-0.81-4.18-0.73-6.96-0.06-9.03c0.58-1.79,4.05-3.16,12.06-4.64
			c0,0,6.03-1.1,8.72,0.33c0.53,0.28,0.95,0.73,1.28,1.32c-1.13-5.05-6.72-4.81-7.9-4.7c-0.02,0-0.04,0.01-0.06,0.01
			c-0.54-0.77-1.43-1.67-2.79-2.01l2.91-3.34c0.08,0.02,0.16,0.03,0.25,0.03c0.63,0,1.14-0.51,1.14-1.14c0-0.63-0.51-1.14-1.14-1.14
			c-0.63,0-1.14,0.51-1.14,1.14c0,0.14,0.03,0.28,0.08,0.4l-3.41,3.92c-0.26,0.01-0.53,0.03-0.82,0.08
			c-0.17,0.03-0.33,0.07-0.49,0.11l-1.57-1.59c0.03-0.1,0.05-0.2,0.05-0.3c0-0.61-0.49-1.1-1.1-1.1s-1.1,0.49-1.1,1.1
			s0.49,1.1,1.1,1.1c0.1,0,0.2-0.02,0.29-0.04l1.23,1.25c-1.73,0.89-2.35,2.49-2.56,3.45c-0.02,0.01-0.03,0.01-0.05,0.02
			c-5.26,1.49-7.79,3.14-8.28,4.75c-0.7,2.3-0.7,6.22,0.42,11.54c1.12,5.31,4.96,4.82,4.96,4.82s14.05,0.14,16.15,0
			c2.1-0.14,4.68-0.42,7.69-6.57C245.54,126.43,245.68,118.45,241.97,116.64z"/>
	</g>
	<path class="st3" d="M322.67,72.67H283.7c-0.91,0-1.62,0.09-2.12,0.28c-0.51,0.19-0.92,0.44-1.24,0.76
		c-0.75,0.75-1.12,1.68-1.12,2.81c0,1.18,0.45,2.14,1.36,2.89c0.32,0.27,0.71,0.47,1.16,0.6c0.45,0.13,1.11,0.2,1.96,0.2h23.82
		c3.05,0,5.63,0.44,7.74,1.32c2.11,0.88,3.89,2.07,5.33,3.57c1.44,1.5,2.58,3.21,3.41,5.13c0.83,1.92,1.24,3.96,1.24,6.09
		c0,1.98-0.36,3.88-1.08,5.69c-0.72,1.82-1.7,3.45-2.93,4.89c-1.5,1.71-3.36,3.07-5.57,4.09c-2.22,1.02-4.93,1.52-8.14,1.52H265.5
		V98.65h39.45c1.12,0,1.99-0.12,2.61-0.36c0.61-0.24,1.11-0.57,1.48-1c0.59-0.69,0.88-1.52,0.88-2.49c0-1.17-0.37-2.14-1.12-2.89
		c-0.38-0.43-0.84-0.73-1.4-0.92c-0.56-0.19-1.38-0.28-2.45-0.28H282.9c-3.64,0-6.56-0.44-8.78-1.32c-2.22-0.88-4.05-2.07-5.49-3.57
		c-1.44-1.5-2.57-3.19-3.37-5.09c-0.8-1.9-1.2-3.97-1.2-6.21c0-2.19,0.41-4.25,1.24-6.17c0.83-1.92,1.96-3.63,3.41-5.13
		c1.44-1.5,3.26-2.69,5.45-3.57c2.19-0.88,5.1-1.32,8.74-1.32h39.77V72.67z"/>
	<path class="st3" d="M390.83,58.32v14.35H367.1v39.85H352.5V72.67h-23.82V58.32H390.83z"/>
	<path class="st3" d="M411.04,112.52h-14.51V61.68c0-2.25,1.2-3.37,3.61-3.37h38.49c3.37,0,6.15,0.47,8.34,1.4
		c2.19,0.94,4.04,2.18,5.53,3.73c1.34,1.39,2.39,3.01,3.17,4.85c0.77,1.84,1.16,3.78,1.16,5.81c0,2.19-0.37,4.26-1.12,6.21
		c-0.75,1.95-2.08,3.62-4.01,5.01c1.82,1.07,3.14,2.43,3.97,4.09c0.83,1.66,1.24,4.04,1.24,7.14v10.83c0,1.18,0.01,2.14,0.04,2.89
		c0.03,0.75,0.09,1.5,0.2,2.25h-14.67c-0.16-1.18-0.24-2.38-0.24-3.61V98.09c0-1.71-0.45-2.94-1.36-3.69
		c-0.91-0.75-2.43-1.12-4.57-1.12h-25.26V112.52z M436.7,80.93c1.01,0,1.84-0.16,2.49-0.48c0.64-0.32,1.17-0.75,1.6-1.28
		c0.69-0.85,1.04-1.79,1.04-2.81c0-1.23-0.4-2.25-1.2-3.05c-0.86-0.96-2.17-1.44-3.93-1.44h-24.46c-0.8,0-1.2,0.4-1.2,1.2v7.86
		H436.7z"/>
	<path class="st3" d="M512.22,59.24v13.86h-39.81c-0.83,0-1.24,0.44-1.24,1.32v5.96h40.82v10.07h-40.82v6.35
		c0,0.93,0.41,1.39,1.24,1.39h39.81v13.4h-47.71c-4.91,0-7.36-2.43-7.36-7.28V66.29c0-4.7,2.48-7.05,7.44-7.05H512.22z"/>
	<path class="st3" d="M585.8,109.28c0.21,0.41,0.37,0.8,0.5,1.16c0.13,0.36,0.24,0.75,0.35,1.16h-15.8
		c-0.1-0.36-0.21-0.68-0.31-0.97c-0.1-0.28-0.21-0.55-0.31-0.81l-2.79-6.35h-30.98l-2.71,6.27c-0.1,0.31-0.21,0.62-0.31,0.93
		c-0.1,0.31-0.18,0.62-0.23,0.93h-16.19c0.1-0.41,0.22-0.8,0.35-1.16c0.13-0.36,0.3-0.75,0.5-1.16l18.74-41.52
		c1.5-3.25,3.46-5.68,5.89-7.28c2.43-1.6,5.53-2.4,9.29-2.4c3.67,0,6.73,0.8,9.18,2.4c2.45,1.6,4.43,4.03,5.93,7.28L585.8,109.28z
		 M562.33,91.93l-8.06-18.74c-0.26-0.57-0.59-0.98-1.01-1.24c-0.41-0.26-0.88-0.39-1.39-0.39c-0.46,0-0.9,0.12-1.32,0.35
		c-0.41,0.23-0.75,0.66-1.01,1.28l-7.98,18.74H562.33z"/>
	<path class="st3" d="M632.28,112.69c-1.86,0-3.59-0.39-5.19-1.16c-1.6-0.77-2.81-1.99-3.64-3.64l-15.88-32.92
		c-0.15-0.41-0.49-0.62-1.01-0.62c-0.31,0-0.59,0.12-0.85,0.35c-0.26,0.23-0.39,0.58-0.39,1.05v35.86h-13.48V73.26
		c0-2.94,0.43-5.37,1.28-7.28c0.85-1.91,2.05-3.49,3.6-4.72c1.19-0.93,2.54-1.69,4.07-2.28c1.52-0.59,3.21-0.89,5.07-0.89
		c3.3,0,6,0.9,8.09,2.71c2.09,1.81,3.81,4.16,5.15,7.05l11.85,25.72c0.26,0.67,0.7,1.01,1.32,1.01c0.62,0,1.06-0.34,1.32-1.01
		l11.85-25.72c1.34-2.89,3.05-5.24,5.11-7.05c2.07-1.81,4.78-2.71,8.13-2.71c1.86,0,3.55,0.3,5.07,0.89
		c1.52,0.59,2.88,1.36,4.07,2.28c1.55,1.24,2.75,2.81,3.6,4.72c0.85,1.91,1.28,4.34,1.28,7.28v38.34h-13.48V75.74
		c0-0.46-0.13-0.81-0.39-1.05c-0.26-0.23-0.54-0.35-0.85-0.35c-0.52,0-0.85,0.21-1.01,0.62l-15.88,32.92
		c-0.83,1.65-2.04,2.87-3.64,3.64C635.86,112.3,634.13,112.69,632.28,112.69z"/>
	<path class="st4" d="M742.57,101.45c0,1.96-0.27,3.65-0.81,5.07c-0.54,1.42-1.27,2.58-2.17,3.49c-0.9,0.9-1.95,1.58-3.14,2.01
		c-1.19,0.44-2.43,0.66-3.72,0.66c-2.22,0-4.17-0.32-5.85-0.97c-1.68-0.64-3.14-1.69-4.38-3.14l-28.74-33.23
		c-0.41-0.46-0.83-0.7-1.24-0.7c-0.36,0-0.67,0.13-0.93,0.39c-0.26,0.26-0.39,0.62-0.39,1.08v35.47h-13.79V70.32
		c0-2.22,0.3-4.11,0.89-5.65c0.59-1.55,1.43-2.81,2.52-3.8c1.08-0.98,2.37-1.69,3.87-2.13c1.5-0.44,3.12-0.66,4.88-0.66
		c2.48,0,4.57,0.39,6.27,1.16c1.7,0.77,3.38,2.12,5.03,4.03l25.56,30.6c0.21,0.26,0.41,0.43,0.62,0.5c0.21,0.08,0.44,0.12,0.7,0.12
		c0.72,0,1.08-0.46,1.08-1.39V59.24h13.71V101.45z"/>
	<path class="st4" d="M806.86,59.24v13.86h-39.81c-0.83,0-1.24,0.44-1.24,1.32v5.96h40.82v10.07h-40.82v6.35
		c0,0.93,0.41,1.39,1.24,1.39h39.81v13.4h-47.71c-4.91,0-7.36-2.43-7.36-7.28V66.29c0-4.7,2.48-7.05,7.44-7.05H806.86z"/>
	<path class="st4" d="M875.02,59.24v13.86h-22.93v38.5H838v-38.5h-23V59.24H875.02z"/>
	<path class="st3" d="M896.63,61.56c-0.21-0.41-0.38-0.8-0.5-1.16c-0.13-0.36-0.25-0.75-0.35-1.16h16.58
		c0.15,0.67,0.34,1.29,0.54,1.86l15.65,36.17c0.26,0.57,0.58,0.98,0.97,1.24c0.39,0.26,0.81,0.39,1.28,0.39
		c0.46,0,0.88-0.12,1.24-0.35c0.36-0.23,0.67-0.66,0.93-1.28l15.49-36.17c0.26-0.57,0.46-1.19,0.62-1.86h16.34
		c-0.1,0.41-0.22,0.8-0.35,1.16c-0.13,0.36-0.3,0.75-0.5,1.16l-18.74,41.52c-1.5,3.25-3.46,5.67-5.89,7.24
		c-2.43,1.57-5.5,2.36-9.22,2.36c-7.23,0-12.29-3.2-15.18-9.6L896.63,61.56z"/>
	<path class="st3" d="M990.97,111.6c-4.7,0-8.78-0.76-12.24-2.28c-3.46-1.52-6.4-3.6-8.83-6.24c-2.12-2.32-3.77-4.98-4.96-7.98
		c-1.19-2.99-1.78-6.22-1.78-9.68c0-3.82,0.75-7.38,2.25-10.69c1.5-3.3,3.56-6.17,6.2-8.6c2.32-2.17,5.07-3.86,8.25-5.07
		c3.18-1.21,6.88-1.82,11.11-1.82h11c4.23,0,7.94,0.61,11.11,1.82c3.18,1.21,5.93,2.9,8.25,5.07c2.63,2.43,4.7,5.29,6.2,8.6
		c1.5,3.31,2.25,6.87,2.25,10.69c0,3.46-0.59,6.69-1.78,9.68c-1.19,3-2.84,5.65-4.96,7.98c-2.43,2.63-5.37,4.71-8.83,6.24
		c-3.46,1.52-7.54,2.28-12.24,2.28H990.97z M990.97,73.11c-2.38,0-4.34,0.31-5.89,0.93c-1.55,0.62-2.89,1.45-4.03,2.48
		c-1.19,1.14-2.13,2.48-2.83,4.03c-0.7,1.55-1.05,3.2-1.05,4.96c0,1.6,0.28,3.11,0.85,4.53c0.57,1.42,1.37,2.67,2.4,3.76
		c1.14,1.24,2.56,2.22,4.26,2.94c1.7,0.72,3.8,1.08,6.27,1.08h11c2.48,0,4.57-0.36,6.27-1.08c1.7-0.72,3.12-1.7,4.26-2.94
		c1.03-1.08,1.83-2.34,2.4-3.76c0.57-1.42,0.85-2.93,0.85-4.53c0-1.75-0.35-3.41-1.05-4.96c-0.7-1.55-1.64-2.89-2.83-4.03
		c-1.14-1.03-2.48-1.86-4.03-2.48c-1.55-0.62-3.51-0.93-5.89-0.93H990.97z"/>
	<path class="st3" d="M1068.2,59.24c4.23,0,7.94,0.61,11.11,1.82c3.18,1.21,5.93,2.9,8.25,5.07c2.63,2.43,4.7,5.29,6.2,8.6
		c1.5,3.31,2.25,6.87,2.25,10.69c0,3.46-0.59,6.69-1.78,9.68c-1.19,3-2.84,5.65-4.96,7.98c-2.43,2.63-5.37,4.71-8.83,6.24
		c-3.46,1.52-7.54,2.28-12.24,2.28h-28.27c-2.27,0-3.41-1.11-3.41-3.33V62.49c0-2.17,1.14-3.25,3.41-3.25H1068.2z M1051.54,73.11
		c-0.67,0-1.01,0.36-1.01,1.08v22.54c0,0.72,0.34,1.08,1.01,1.08h16.65c2.48,0,4.57-0.36,6.27-1.08c1.7-0.72,3.12-1.7,4.26-2.94
		c1.03-1.08,1.83-2.34,2.4-3.76c0.57-1.42,0.85-2.93,0.85-4.53c0-1.75-0.35-3.41-1.05-4.96c-0.7-1.55-1.64-2.89-2.83-4.03
		c-1.14-1.03-2.48-1.86-4.03-2.48c-1.55-0.62-3.51-0.93-5.89-0.93H1051.54z"/>
	<linearGradient id="SVGID_4_" gradientUnits="userSpaceOnUse" x1="136.8137" y1="44.0077" x2="157.3276" y2="44.0077">
		<stop  offset="0" style="stop-color:#CE8017"/>
		<stop  offset="0.2797" style="stop-color:#EFAF14"/>
		<stop  offset="0.8659" style="stop-color:#CE8017"/>
	</linearGradient>
	<polygon class="st5" points="157.33,44.01 136.81,55.85 136.81,52.23 151.06,44.01 147.71,42.08 136.81,35.78 136.81,32.16 
		150.84,40.26 	"/>
	<linearGradient id="SVGID_5_" gradientUnits="userSpaceOnUse" x1="143.7013" y1="44.8331" x2="142.9671" y2="24.3823">
		<stop  offset="0" style="stop-color:#CE8017"/>
		<stop  offset="0.3751" style="stop-color:#EFAF14"/>
		<stop  offset="1" style="stop-color:#CE8017"/>
	</linearGradient>
	<polygon class="st6" points="153.95,38.47 150.84,40.26 136.81,32.16 136.81,48.36 133.43,50.32 133.43,26.63 	"/>
	<linearGradient id="SVGID_6_" gradientUnits="userSpaceOnUse" x1="147.1758" y1="33.5755" x2="125.2568" y2="49.0971">
		<stop  offset="0.5279" style="stop-color:#EFAF14"/>
		<stop  offset="1" style="stop-color:#CE8017"/>
	</linearGradient>
	<polygon class="st7" points="151.06,44.01 136.81,52.23 130.55,55.85 130.55,32.16 133.43,33.83 133.43,50.32 136.81,48.36 
		147.71,42.08 	"/>
	<linearGradient id="SVGID_7_" gradientUnits="userSpaceOnUse" x1="180.4642" y1="54.7608" x2="246.1458" y2="54.7608">
		<stop  offset="0.5279" style="stop-color:#EFAF14"/>
		<stop  offset="1" style="stop-color:#CE8017"/>
	</linearGradient>
	<path class="st8" d="M243.93,87.6c-1.22,0-2.22-0.99-2.22-2.22c0-32.55-26.48-59.03-59.03-59.03c-1.22,0-2.22-0.99-2.22-2.22
		s0.99-2.22,2.22-2.22c34.99,0,63.46,28.47,63.46,63.46C246.15,86.61,245.15,87.6,243.93,87.6z"/>
	<linearGradient id="SVGID_8_" gradientUnits="userSpaceOnUse" x1="119.2158" y1="116.0082" x2="184.8985" y2="116.0082">
		<stop  offset="0.5279" style="stop-color:#EFAF14"/>
		<stop  offset="1" style="stop-color:#CE8017"/>
	</linearGradient>
	<path class="st9" d="M182.68,148.85c-34.99,0-63.47-28.47-63.47-63.46c0-1.22,0.99-2.22,2.22-2.22c1.22,0,2.22,0.99,2.22,2.22
		c0,32.55,26.48,59.03,59.03,59.03c1.22,0,2.22,0.99,2.22,2.22C184.9,147.86,183.91,148.85,182.68,148.85z"/>
	<circle class="st3" cx="170.38" cy="25.37" r="2.77"/>
	<circle class="st3" cx="159.41" cy="28.72" r="2.77"/>
	<circle class="st3" cx="126.11" cy="61.88" r="2.77"/>
	<circle class="st3" cx="122.6" cy="73.42" r="2.77"/>
	<circle class="st3" cx="207.03" cy="141.59" r="2.77"/>
	<circle class="st3" cx="195.54" cy="145.28" r="2.77"/>
	<circle class="st3" cx="239.67" cy="107.86" r="2.77"/>
	<circle class="st3" cx="242.8" cy="97.13" r="2.77"/>
	<path class="st3" d="M190.86,86.38l-11.92-6.88c-3.15-1.82-7.1,0.46-7.1,4.1v13.76c0,3.64,3.94,5.92,7.1,4.1l11.92-6.88
		C194.01,92.76,194.01,88.2,190.86,86.38z"/>
</g>
<g>
	<path class="st3" d="M226.55,125.54v1.58h-2.61v4.39h-1.61v-4.39h-2.62v-1.58H226.55z"/>
	<path class="st3" d="M227.07,125.8c-0.02-0.05-0.04-0.09-0.06-0.13s-0.03-0.09-0.04-0.13h1.89c0.02,0.08,0.04,0.15,0.06,0.21
		l1.78,4.12c0.03,0.06,0.07,0.11,0.11,0.14c0.04,0.03,0.09,0.04,0.15,0.04c0.05,0,0.1-0.01,0.14-0.04c0.04-0.03,0.08-0.07,0.11-0.15
		l1.77-4.12c0.03-0.06,0.05-0.13,0.07-0.21h1.86c-0.01,0.05-0.03,0.09-0.04,0.13s-0.03,0.09-0.06,0.13l-2.14,4.73
		c-0.17,0.37-0.39,0.65-0.67,0.83c-0.28,0.18-0.63,0.27-1.05,0.27c-0.82,0-1.4-0.36-1.73-1.09L227.07,125.8z"/>
</g>
</svg>
