<?xml version="1.0" encoding="UTF-8"?>
<svg id="Layer_1" xmlns="http://www.w3.org/2000/svg" version="1.1" xmlns:xlink="http://www.w3.org/1999/xlink" viewBox="0 0 1280 161.3">
  <!-- Generator: Adobe Illustrator 29.6.1, SVG Export Plug-In . SVG Version: 2.1.1 Build 9)  -->
  <defs>
    <style>
      .st0 {
        fill: url(#linear-gradient2);
      }

      .st1 {
        fill: #fff;
      }

      .st2 {
        fill: url(#linear-gradient1);
      }

      .st3 {
        fill: url(#linear-gradient7);
      }

      .st4 {
        fill: url(#linear-gradient4);
      }

      .st5 {
        fill: url(#linear-gradient5);
      }

      .st6 {
        fill: url(#linear-gradient3);
      }

      .st7 {
        fill: #e5a209;
      }

      .st8 {
        fill: url(#linear-gradient6);
      }

      .st9 {
        fill: url(#linear-gradient);
      }
    </style>
    <linearGradient id="linear-gradient" x1="148.93" y1="-830.88" x2="217.48" y2="-830.88" gradientTransform="translate(0 -752) scale(1 -1)" gradientUnits="userSpaceOnUse">
      <stop offset=".53" stop-color="#efaf14"/>
      <stop offset="1" stop-color="#ce8017"/>
    </linearGradient>
    <linearGradient id="linear-gradient1" x1="234.91" y1="-867.56" x2="235.8" y2="-867.56" gradientTransform="translate(0 -752) scale(1 -1)" gradientUnits="userSpaceOnUse">
      <stop offset=".53" stop-color="#efaf14"/>
      <stop offset="1" stop-color="#ce8017"/>
    </linearGradient>
    <linearGradient id="linear-gradient2" x1="212.83" y1="-875.87" x2="244.78" y2="-875.87" gradientTransform="translate(0 -752) scale(1 -1)" gradientUnits="userSpaceOnUse">
      <stop offset=".53" stop-color="#efaf14"/>
      <stop offset="1" stop-color="#ce8017"/>
    </linearGradient>
    <linearGradient id="linear-gradient3" x1="136.81" y1="-796" x2="157.33" y2="-796" gradientTransform="translate(0 -752) scale(1 -1)" gradientUnits="userSpaceOnUse">
      <stop offset="0" stop-color="#ce8017"/>
      <stop offset=".28" stop-color="#efaf14"/>
      <stop offset=".87" stop-color="#ce8017"/>
    </linearGradient>
    <linearGradient id="linear-gradient4" x1="143.71" y1="-796.83" x2="142.97" y2="-776.38" gradientTransform="translate(0 -752) scale(1 -1)" gradientUnits="userSpaceOnUse">
      <stop offset="0" stop-color="#ce8017"/>
      <stop offset=".38" stop-color="#efaf14"/>
      <stop offset="1" stop-color="#ce8017"/>
    </linearGradient>
    <linearGradient id="linear-gradient5" x1="147.17" y1="-785.57" x2="125.26" y2="-801.1" gradientTransform="translate(0 -752) scale(1 -1)" gradientUnits="userSpaceOnUse">
      <stop offset=".53" stop-color="#efaf14"/>
      <stop offset="1" stop-color="#ce8017"/>
    </linearGradient>
    <linearGradient id="linear-gradient6" x1="180.46" y1="-806.75" x2="246.14" y2="-806.75" gradientTransform="translate(0 -752) scale(1 -1)" gradientUnits="userSpaceOnUse">
      <stop offset=".53" stop-color="#efaf14"/>
      <stop offset="1" stop-color="#ce8017"/>
    </linearGradient>
    <linearGradient id="linear-gradient7" x1="119.21" y1="-868.01" x2="184.9" y2="-868.01" gradientTransform="translate(0 -752) scale(1 -1)" gradientUnits="userSpaceOnUse">
      <stop offset=".53" stop-color="#efaf14"/>
      <stop offset="1" stop-color="#ce8017"/>
    </linearGradient>
  </defs>
  <g>
    <path class="st9" d="M215.37,62.75c-1.93-2.16-4.79-3.13-7.64-2.61l-24.82,4.56,11.53-16.93c2.95-.1,5.3-2.51,5.3-5.48s-2.46-5.49-5.49-5.49-5.49,2.46-5.49,5.49c0,.89.22,1.73.59,2.47l-10.37,15.24-6.98-8.07c.15-.5.23-1.03.23-1.57,0-3.03-2.46-5.49-5.49-5.49s-5.49,2.46-5.49,5.49,2.46,5.49,5.49,5.49c.27,0,.54-.03.8-.06l8.76,10.13-20.6,3.78c-3.92.72-6.77,4.14-6.77,8.12v24.3c0,3.71,2.5,6.99,6.08,7.97l38.78,10.58c.74.2,1.49.3,2.21.3,3.56,0,6.8-2.31,7.87-5.91l13.26-44.44c.83-2.77.17-5.72-1.76-7.87h0ZM211.49,68.94l-13.26,44.44c-.37,1.24-1.64,1.94-2.88,1.6l-38.78-10.58c-1.02-.28-1.74-1.22-1.74-2.28v-24.3c0-1.14.81-2.12,1.93-2.32l52.03-9.56c.16-.03.31-.04.45-.04.91,0,1.5.53,1.73.79.28.29.86,1.1.52,2.25h0Z"/>
    <g>
      <path class="st2" d="M234.91,115.4l.89.31c-.53-.23-.89-.31-.89-.31Z"/>
      <path class="st0" d="M241.97,116.64c-1.56-.77-3.95-.96-6.18-.93,1.22.53,3.33,1.85,3.94,4.89h0c.31,1.52.24,3.44-.49,5.88h0c-.24,1.64-.73,3.37-1.46,5-2.18,4.83-4.05,5.05-5.57,5.16s-11.7,0-11.7,0c0,0-3.03.35-3.84-3.82-.81-4.18-.73-6.96-.06-9.03.58-1.79,4.05-3.16,12.06-4.64,0,0,6.03-1.1,8.72.33.53.28.95.73,1.28,1.32-1.13-5.05-6.72-4.81-7.9-4.7-.02,0-.04.01-.06.01-.54-.77-1.43-1.67-2.79-2.01l2.91-3.34c.08.02.16.03.25.03.63,0,1.14-.51,1.14-1.14s-.51-1.14-1.14-1.14-1.14.51-1.14,1.14c0,.14.03.28.08.4l-3.41,3.92c-.26.01-.53.03-.82.08-.17.03-.33.07-.49.11l-1.57-1.59c.03-.1.05-.2.05-.3,0-.61-.49-1.1-1.1-1.1s-1.1.49-1.1,1.1.49,1.1,1.1,1.1c.1,0,.2-.02.29-.04l1.23,1.25c-1.73.89-2.35,2.49-2.56,3.45-.02.01-.03.01-.05.02-5.26,1.49-7.79,3.14-8.28,4.75-.7,2.3-.7,6.22.42,11.54,1.12,5.31,4.96,4.82,4.96,4.82,0,0,14.05.14,16.15,0,2.1-.14,4.68-.42,7.69-6.57,3.02-6.16,3.16-14.14-.55-15.95h0Z"/>
    </g>
    <path class="st1" d="M322.67,72.67h-38.97c-.91,0-1.62.09-2.12.28-.51.19-.92.44-1.24.76-.75.75-1.12,1.68-1.12,2.81s.45,2.14,1.36,2.89c.32.27.71.47,1.16.6s1.11.2,1.96.2h23.82c3.05,0,5.63.44,7.74,1.32s3.89,2.07,5.33,3.57c1.44,1.5,2.58,3.21,3.41,5.13.83,1.92,1.24,3.96,1.24,6.09,0,1.98-.36,3.88-1.08,5.69-.72,1.82-1.7,3.45-2.93,4.89-1.5,1.71-3.36,3.07-5.57,4.09-2.22,1.02-4.93,1.52-8.14,1.52h-42.02v-13.86h39.45c1.12,0,1.99-.12,2.61-.36.61-.24,1.11-.57,1.48-1,.59-.69.88-1.52.88-2.49,0-1.17-.37-2.14-1.12-2.89-.38-.43-.84-.73-1.4-.92-.56-.19-1.38-.28-2.45-.28h-22.05c-3.64,0-6.56-.44-8.78-1.32s-4.05-2.07-5.49-3.57-2.57-3.19-3.37-5.09c-.8-1.9-1.2-3.97-1.2-6.21s.41-4.25,1.24-6.17,1.96-3.63,3.41-5.13c1.44-1.5,3.26-2.69,5.45-3.57s5.1-1.32,8.74-1.32h39.77v14.34h0Z"/>
    <path class="st1" d="M390.83,58.32v14.35h-23.73v39.85h-14.6v-39.85h-23.82v-14.35h62.15Z"/>
    <path class="st1" d="M411.04,112.52h-14.51v-50.84c0-2.25,1.2-3.37,3.61-3.37h38.49c3.37,0,6.15.47,8.34,1.4,2.19.94,4.04,2.18,5.53,3.73,1.34,1.39,2.39,3.01,3.17,4.85.77,1.84,1.16,3.78,1.16,5.81,0,2.19-.37,4.26-1.12,6.21s-2.08,3.62-4.01,5.01c1.82,1.07,3.14,2.43,3.97,4.09s1.24,4.04,1.24,7.14v10.83c0,1.18.01,2.14.04,2.89s.09,1.5.2,2.25h-14.67c-.16-1.18-.24-2.38-.24-3.61v-10.82c0-1.71-.45-2.94-1.36-3.69-.91-.75-2.43-1.12-4.57-1.12h-25.26v19.24h0ZM436.7,80.93c1.01,0,1.84-.16,2.49-.48.64-.32,1.17-.75,1.6-1.28.69-.85,1.04-1.79,1.04-2.81,0-1.23-.4-2.25-1.2-3.05-.86-.96-2.17-1.44-3.93-1.44h-24.46c-.8,0-1.2.4-1.2,1.2v7.86s25.66,0,25.66,0Z"/>
    <path class="st1" d="M519.22,60.24v13.86h-39.81c-.83,0-1.24.44-1.24,1.32v5.96h40.82v10.07h-40.82v6.35c0,.93.41,1.39,1.24,1.39h39.81v13.4h-47.71c-4.91,0-7.36-2.43-7.36-7.28v-38.02c0-4.7,2.48-7.05,7.44-7.05,0,0,47.63,0,47.63,0Z"/>
    <path class="st1" d="M594.8,109.28c.21.41.37.8.5,1.16s.24.75.35,1.16h-15.8c-.1-.36-.21-.68-.31-.97-.1-.28-.21-.55-.31-.81l-2.79-6.35h-30.98l-2.71,6.27c-.1.31-.21.62-.31.93s-.18.62-.23.93h-16.19c.1-.41.22-.8.35-1.16s.3-.75.5-1.16l18.74-41.52c1.5-3.25,3.46-5.68,5.89-7.28s5.53-2.4,9.29-2.4,6.73.8,9.18,2.4c2.45,1.6,4.43,4.03,5.93,7.28l18.9,41.52ZM571.33,91.93l-8.06-18.74c-.26-.57-.59-.98-1.01-1.24-.41-.26-.88-.39-1.39-.39-.46,0-.9.12-1.32.35-.41.23-.75.66-1.01,1.28l-7.98,18.74h20.77Z"/>
    <path class="st1" d="M641.28,112.69c-1.86,0-3.59-.39-5.19-1.16-1.6-.77-2.81-1.99-3.64-3.64l-15.88-32.92c-.15-.41-.49-.62-1.01-.62-.31,0-.59.12-.85.35-.26.23-.39.58-.39,1.05v35.86h-13.48v-38.35c0-2.94.43-5.37,1.28-7.28.85-1.91,2.05-3.49,3.6-4.72,1.19-.93,2.54-1.69,4.07-2.28,1.52-.59,3.21-.89,5.07-.89,3.3,0,6,.9,8.09,2.71s3.81,4.16,5.15,7.05l11.85,25.72c.26.67.7,1.01,1.32,1.01s1.06-.34,1.32-1.01l11.85-25.72c1.34-2.89,3.05-5.24,5.11-7.05,2.07-1.81,4.78-2.71,8.13-2.71,1.86,0,3.55.3,5.07.89s2.88,1.36,4.07,2.28c1.55,1.24,2.75,2.81,3.6,4.72.85,1.91,1.28,4.34,1.28,7.28v38.34h-13.48v-35.86c0-.46-.13-.81-.39-1.05-.26-.23-.54-.35-.85-.35-.52,0-.85.21-1.01.62l-15.88,32.92c-.83,1.65-2.04,2.87-3.64,3.64-1.59.78-3.32,1.17-5.17,1.17h0Z"/>
    <path class="st7" d="M751.57,101.45c0,1.96-.27,3.65-.81,5.07s-1.27,2.58-2.17,3.49c-.9.9-1.95,1.58-3.14,2.01-1.19.44-2.43.66-3.72.66-2.22,0-4.17-.32-5.85-.97-1.68-.64-3.14-1.69-4.38-3.14l-28.74-33.23c-.41-.46-.83-.7-1.24-.7-.36,0-.67.13-.93.39s-.39.62-.39,1.08v35.47h-13.79v-41.26c0-2.22.3-4.11.89-5.65.59-1.55,1.43-2.81,2.52-3.8,1.08-.98,2.37-1.69,3.87-2.13,1.5-.44,3.12-.66,4.88-.66,2.48,0,4.57.39,6.27,1.16s3.38,2.12,5.03,4.03l25.56,30.6c.21.26.41.43.62.5.21.08.44.12.7.12.72,0,1.08-.46,1.08-1.39v-33.86h13.71v42.21h.03,0Z"/>
    <path class="st7" d="M815.86,59.24v13.86h-39.81c-.83,0-1.24.44-1.24,1.32v5.96h40.82v10.07h-40.82v6.35c0,.93.41,1.39,1.24,1.39h39.81v13.4h-47.71c-4.91,0-7.36-2.43-7.36-7.28v-38.02c0-4.7,2.48-7.05,7.44-7.05,0,0,47.63,0,47.63,0Z"/>
    <path class="st7" d="M884.02,59.24v13.86h-22.93v38.5h-14.09v-38.5h-23v-13.86s60.02,0,60.02,0Z"/>
    <path class="st1" d="M905.63,61.56c-.21-.41-.38-.8-.5-1.16-.13-.36-.25-.75-.35-1.16h16.58c.15.67.34,1.29.54,1.86l15.65,36.17c.26.57.58.98.97,1.24.39.26.81.39,1.28.39s.88-.12,1.24-.35c.36-.23.67-.66.93-1.28l15.49-36.17c.26-.57.46-1.19.62-1.86h16.34c-.1.41-.22.8-.35,1.16s-.3.75-.5,1.16l-18.74,41.52c-1.5,3.25-3.46,5.67-5.89,7.24s-5.5,2.36-9.22,2.36c-7.23,0-12.29-3.2-15.18-9.6l-18.91-41.52h0Z"/>
    <path class="st1" d="M999.97,111.6c-4.7,0-8.78-.76-12.24-2.28-3.46-1.52-6.4-3.6-8.83-6.24-2.12-2.32-3.77-4.98-4.96-7.98-1.19-2.99-1.78-6.22-1.78-9.68,0-3.82.75-7.38,2.25-10.69,1.5-3.3,3.56-6.17,6.2-8.6,2.32-2.17,5.07-3.86,8.25-5.07s6.88-1.82,11.11-1.82h11c4.23,0,7.94.61,11.11,1.82,3.18,1.21,5.93,2.9,8.25,5.07,2.63,2.43,4.7,5.29,6.2,8.6s2.25,6.87,2.25,10.69c0,3.46-.59,6.69-1.78,9.68-1.19,3-2.84,5.65-4.96,7.98-2.43,2.63-5.37,4.71-8.83,6.24-3.46,1.52-7.54,2.28-12.24,2.28h-11,0ZM999.97,73.11c-2.38,0-4.34.31-5.89.93s-2.89,1.45-4.03,2.48c-1.19,1.14-2.13,2.48-2.83,4.03-.7,1.55-1.05,3.2-1.05,4.96,0,1.6.28,3.11.85,4.53.57,1.42,1.37,2.67,2.4,3.76,1.14,1.24,2.56,2.22,4.26,2.94s3.8,1.08,6.27,1.08h11c2.48,0,4.57-.36,6.27-1.08s3.12-1.7,4.26-2.94c1.03-1.08,1.83-2.34,2.4-3.76.57-1.42.85-2.93.85-4.53,0-1.75-.35-3.41-1.05-4.96-.7-1.55-1.64-2.89-2.83-4.03-1.14-1.03-2.48-1.86-4.03-2.48-1.55-.62-3.51-.93-5.89-.93h-10.96,0Z"/>
    <path class="st1" d="M1077.2,59.24c4.23,0,7.94.61,11.11,1.82,3.18,1.21,5.93,2.9,8.25,5.07,2.63,2.43,4.7,5.29,6.2,8.6s2.25,6.87,2.25,10.69c0,3.46-.59,6.69-1.78,9.68-1.19,3-2.84,5.65-4.96,7.98-2.43,2.63-5.37,4.71-8.83,6.24-3.46,1.52-7.54,2.28-12.24,2.28h-28.27c-2.27,0-3.41-1.11-3.41-3.33v-45.78c0-2.17,1.14-3.25,3.41-3.25,0,0,28.27,0,28.27,0ZM1060.54,73.11c-.67,0-1.01.36-1.01,1.08v22.54c0,.72.34,1.08,1.01,1.08h16.65c2.48,0,4.57-.36,6.27-1.08,1.7-.72,3.12-1.7,4.26-2.94,1.03-1.08,1.83-2.34,2.4-3.76.57-1.42.85-2.93.85-4.53,0-1.75-.35-3.41-1.05-4.96-.7-1.55-1.64-2.89-2.83-4.03-1.14-1.03-2.48-1.86-4.03-2.48s-3.51-.93-5.89-.93h-16.63Z"/>
    <polygon class="st6" points="157.33 44.01 136.81 55.85 136.81 52.23 151.06 44.01 147.71 42.08 136.81 35.78 136.81 32.16 150.84 40.26 157.33 44.01"/>
    <polygon class="st4" points="153.95 38.47 150.84 40.26 136.81 32.16 136.81 48.36 133.43 50.32 133.43 26.63 153.95 38.47"/>
    <polygon class="st5" points="151.06 44.01 136.81 52.23 130.55 55.85 130.55 32.16 133.43 33.83 133.43 50.32 136.81 48.36 147.71 42.08 151.06 44.01"/>
    <path class="st8" d="M243.93,87.6c-1.22,0-2.22-.99-2.22-2.22,0-32.55-26.48-59.03-59.03-59.03-1.22,0-2.22-.99-2.22-2.22s.99-2.22,2.22-2.22c34.99,0,63.46,28.47,63.46,63.46,0,1.24-.99,2.23-2.21,2.23h0Z"/>
    <path class="st3" d="M182.68,148.85c-34.99,0-63.47-28.47-63.47-63.46,0-1.22.99-2.22,2.22-2.22s2.22.99,2.22,2.22c0,32.55,26.48,59.03,59.03,59.03,1.22,0,2.22.99,2.22,2.22s-.99,2.21-2.22,2.21h0Z"/>
    <circle class="st1" cx="170.38" cy="25.37" r="2.77"/>
    <circle class="st1" cx="159.41" cy="28.72" r="2.77"/>
    <circle class="st1" cx="126.11" cy="61.88" r="2.77"/>
    <circle class="st1" cx="122.6" cy="73.42" r="2.77"/>
    <circle class="st1" cx="207.03" cy="141.59" r="2.77"/>
    <circle class="st1" cx="195.54" cy="145.28" r="2.77"/>
    <circle class="st1" cx="239.67" cy="107.86" r="2.77"/>
    <circle class="st1" cx="242.8" cy="97.13" r="2.77"/>
    <path class="st1" d="M190.86,86.38l-11.92-6.88c-3.15-1.82-7.1.46-7.1,4.1v13.76c0,3.64,3.94,5.92,7.1,4.1l11.92-6.88c3.15-1.82,3.15-6.38,0-8.2Z"/>
  </g>
  <g>
    <path class="st1" d="M226.55,125.54v1.58h-2.61v4.39h-1.61v-4.39h-2.62v-1.58s6.84,0,6.84,0Z"/>
    <path class="st1" d="M227.07,125.8c-.02-.05-.04-.09-.06-.13s-.03-.09-.04-.13h1.89c.02.08.04.15.06.21l1.78,4.12c.03.06.07.11.11.14s.09.04.15.04c.05,0,.1,0,.14-.04s.08-.07.11-.15l1.77-4.12c.03-.06.05-.13.07-.21h1.86c0,.05-.03.09-.04.13s-.03.09-.06.13l-2.14,4.73c-.17.37-.39.65-.67.83-.28.18-.63.27-1.05.27-.82,0-1.4-.36-1.73-1.09l-2.15-4.73h0Z"/>
  </g>
</svg>