<?xml version="1.0" encoding="UTF-8"?>
<svg id="Layer_1" xmlns="http://www.w3.org/2000/svg" version="1.1" xmlns:xlink="http://www.w3.org/1999/xlink" viewBox="0 0 1280 334.3">
  <!-- Generator: Adobe Illustrator 29.6.1, SVG Export Plug-In . SVG Version: 2.1.1 Build 9)  -->
  <defs>
    <style>
      .st0 {
        fill: url(#linear-gradient2);
      }

      .st1 {
        fill: url(#linear-gradient10);
      }

      .st2 {
        fill: #fff;
      }

      .st3 {
        fill: url(#linear-gradient1);
      }

      .st4 {
        fill: url(#linear-gradient9);
      }

      .st5 {
        fill: url(#linear-gradient8);
      }

      .st6 {
        fill: url(#linear-gradient11);
      }

      .st7 {
        fill: url(#linear-gradient12);
      }

      .st8 {
        fill: url(#linear-gradient7);
      }

      .st9 {
        fill: url(#linear-gradient4);
      }

      .st10 {
        fill: url(#linear-gradient5);
      }

      .st11 {
        fill: url(#linear-gradient3);
      }

      .st12 {
        fill: url(#linear-gradient6);
      }

      .st13 {
        fill: url(#linear-gradient);
      }
    </style>
    <linearGradient id="linear-gradient" x1="943.35" y1="659.25" x2="943.35" y2="795.83" gradientTransform="translate(0 -744)" gradientUnits="userSpaceOnUse">
      <stop offset="0" stop-color="#fa904f"/>
      <stop offset=".18" stop-color="#ea8a68"/>
      <stop offset=".74" stop-color="#bb79ae"/>
      <stop offset="1" stop-color="#a872ca"/>
    </linearGradient>
    <linearGradient id="linear-gradient1" x1="1092.75" y1="659.25" x2="1092.75" y2="795.83" gradientTransform="translate(0 -744)" gradientUnits="userSpaceOnUse">
      <stop offset="0" stop-color="#fa904f"/>
      <stop offset=".18" stop-color="#ea8a68"/>
      <stop offset=".74" stop-color="#bb79ae"/>
      <stop offset="1" stop-color="#a872ca"/>
    </linearGradient>
    <linearGradient id="linear-gradient2" x1="1014.85" y1="659.25" x2="1014.85" y2="795.83" gradientTransform="translate(0 -744)" gradientUnits="userSpaceOnUse">
      <stop offset="0" stop-color="#fa904f"/>
      <stop offset=".18" stop-color="#ea8a68"/>
      <stop offset=".74" stop-color="#bb79ae"/>
      <stop offset="1" stop-color="#a872ca"/>
    </linearGradient>
    <linearGradient id="linear-gradient3" x1="408.85" y1="659.25" x2="408.85" y2="795.83" gradientTransform="translate(0 -744)" gradientUnits="userSpaceOnUse">
      <stop offset="0" stop-color="#fa904f"/>
      <stop offset=".18" stop-color="#ea8a68"/>
      <stop offset=".74" stop-color="#bb79ae"/>
      <stop offset="1" stop-color="#a872ca"/>
    </linearGradient>
    <linearGradient id="linear-gradient4" x1="70.05" y1="659.25" x2="70.05" y2="795.83" gradientTransform="translate(0 -744)" gradientUnits="userSpaceOnUse">
      <stop offset="0" stop-color="#fa904f"/>
      <stop offset=".18" stop-color="#ea8a68"/>
      <stop offset=".74" stop-color="#bb79ae"/>
      <stop offset="1" stop-color="#a872ca"/>
    </linearGradient>
    <linearGradient id="linear-gradient5" x1="161.79" y1="640.12" x2="308.84" y2="798.37" gradientTransform="translate(0 -744)" gradientUnits="userSpaceOnUse">
      <stop offset="0" stop-color="#fa904f"/>
      <stop offset=".18" stop-color="#ea8a68"/>
      <stop offset=".74" stop-color="#bb79ae"/>
      <stop offset="1" stop-color="#a872ca"/>
    </linearGradient>
    <linearGradient id="linear-gradient6" x1="177.85" y1="638.03" x2="287.79" y2="792.78" gradientTransform="translate(0 -744)" gradientUnits="userSpaceOnUse">
      <stop offset="0" stop-color="#454545"/>
      <stop offset="1" stop-color="#333"/>
    </linearGradient>
    <linearGradient id="linear-gradient7" x1="697.15" y1="659.25" x2="697.15" y2="795.83" gradientTransform="translate(0 -744)" gradientUnits="userSpaceOnUse">
      <stop offset="0" stop-color="#fa904f"/>
      <stop offset=".18" stop-color="#ea8a68"/>
      <stop offset=".74" stop-color="#bb79ae"/>
      <stop offset="1" stop-color="#a872ca"/>
    </linearGradient>
    <linearGradient id="linear-gradient8" x1="625.7" y1="659.25" x2="625.7" y2="795.83" gradientTransform="translate(0 -744)" gradientUnits="userSpaceOnUse">
      <stop offset="0" stop-color="#fa904f"/>
      <stop offset=".18" stop-color="#ea8a68"/>
      <stop offset=".74" stop-color="#bb79ae"/>
      <stop offset="1" stop-color="#a872ca"/>
    </linearGradient>
    <linearGradient id="linear-gradient9" x1="767.1" y1="659.25" x2="767.1" y2="795.83" gradientTransform="translate(0 -744)" gradientUnits="userSpaceOnUse">
      <stop offset="0" stop-color="#fa904f"/>
      <stop offset=".18" stop-color="#ea8a68"/>
      <stop offset=".74" stop-color="#bb79ae"/>
      <stop offset="1" stop-color="#a872ca"/>
    </linearGradient>
    <linearGradient id="linear-gradient10" x1="830.55" y1="659.25" x2="830.55" y2="795.83" gradientTransform="translate(0 -744)" gradientUnits="userSpaceOnUse">
      <stop offset="0" stop-color="#fa904f"/>
      <stop offset=".18" stop-color="#ea8a68"/>
      <stop offset=".74" stop-color="#bb79ae"/>
      <stop offset="1" stop-color="#a872ca"/>
    </linearGradient>
    <linearGradient id="linear-gradient11" x1="487.6" y1="659.25" x2="487.6" y2="795.83" gradientTransform="translate(0 -744)" gradientUnits="userSpaceOnUse">
      <stop offset="0" stop-color="#fa904f"/>
      <stop offset=".18" stop-color="#ea8a68"/>
      <stop offset=".74" stop-color="#bb79ae"/>
      <stop offset="1" stop-color="#a872ca"/>
    </linearGradient>
    <linearGradient id="linear-gradient12" x1="557.35" y1="659.25" x2="557.35" y2="795.83" gradientTransform="translate(0 -744)" gradientUnits="userSpaceOnUse">
      <stop offset="0" stop-color="#fa904f"/>
      <stop offset=".18" stop-color="#ea8a68"/>
      <stop offset=".74" stop-color="#bb79ae"/>
      <stop offset="1" stop-color="#a872ca"/>
    </linearGradient>
  </defs>
  <polygon class="st13" points="955.8 -91.89 929.8 -91.89 871.8 41.21 898.8 41.21 942.9 -59.89 987.7 41.21 1014.9 41.21 955.8 -91.89"/>
  <path class="st3" d="M1141.8-48.49c0-23-18.7-41.8-41.8-41.8h-56.3c10.3,5,18.5,13.8,22.8,24.6h33.4c9.5,0,17.2,7.7,17.2,17.2s-7.7,17.2-17.2,17.2h-21.9l32.6,71.2h28.1l-21.1-50.6c14.4-6.7,24.2-21.1,24.2-37.8h0Z"/>
  <path class="st0" d="M1036.6-10.69c14.2-6.7,24-21.1,24-37.8,0-23-18.7-41.8-41.8-41.8h-49.7l10.9,24.6h38.8c9.5,0,17.2,7.7,17.2,17.2s-7.7,17.2-17.2,17.2h-21.9l32.6,71.2h28.1l-21-50.6Z"/>
  <path class="st11" d="M380.3,41.31h-26.6V14.71h45.2c9.8,0,18.5-3.5,26-10.4s11.6-15.5,12.2-25.8v-.3c0-.3,0-.5.1-.6v-1.3c0-7.6-1.8-14.6-5.5-21.1s-9.3-11.5-16.8-15c-.1,0-.3-.1-.4-.1s-.2-.1-.3-.2c-.1,0-.4-.1-.8-.3-2.3-.9-4.7-1.7-7.2-2.3h-.8c-1.9-.4-4-.6-6.4-.6h-45.2v-26.7h48.8c1,0,1.8,0,2.5.1,16.4,1.5,30.3,8.5,41.7,20.8,11.4,12.4,17.2,27,17.2,43.8v1.8c0,16.9-5.7,31.5-17.2,43.8-11.4,12.4-25.4,19.3-41.7,20.8-.6.1-1.1.2-1.6.2h-23.2Z"/>
  <path class="st9" d="M130.1-89.79L70.1,41.11,10-89.79h29.3l30.8,66.9,30.7-66.9h29.3Z"/>
  <g>
    <circle class="st10" cx="236.3" cy="-23.69" r="110.2"/>
    <circle class="st12" cx="236.3" cy="-23.69" r="92.9"/>
    <path class="st2" d="M212.7-23.09v-39.7c0-4.1,4.5-6.5,7.9-4.2l29.2,19.4,30.7,20.4c3,2,3,6.5,0,8.5L249.8,1.71l-29.2,19.4c-3.4,2.2-7.9-.2-7.9-4.2V-23.09h0Z"/>
  </g>
  <path class="st8" d="M700.7,41.31c-19.1,0-43.2-7.5-52.9-20.9l20-14.5c2.9,4,18.7,11.3,34.8,10.6,4.8-.2,13.3-1.4,16.6-6.9,3-5,2.1-7.3,1.7-8.2-1.8-4.5-10.5-11.5-29-16.5-19.6-5.3-32.8-20.6-32.8-38.1,0-16.3,11.3-29.9,28.8-34.6,33.7-9,57.6,11.9,58.6,12.8l-8.3,9.2-8.2,9.3c-.6-.5-15.3-12.9-35.7-7.4-6.7,1.8-10.5,5.7-10.5,10.7s3.8,11.3,14.5,14.2c16.9,4.5,38.5,13.6,45.5,31.2,2.7,6.7,4.3,17.4-3.5,30.3-6.9,11.4-20,18.1-36.8,18.8-.9-.1-1.9,0-2.8,0h0Z"/>
  <rect class="st5" x="612.6" y="-89.89" width="26.2" height="131"/>
  <g>
    <polygon class="st4" points="780.5 -39.29 780.5 -52.39 780.5 -89.79 753.7 -89.79 753.7 41.11 780.5 41.11 780.5 3.61 780.5 -12.69 780.5 -39.29"/>
    <polygon class="st1" points="840.4 -89.79 840.4 -39.29 794 -39.29 794 -12.69 840.8 -12.69 840.8 41.11 867.1 41.11 867.1 -89.79 840.4 -89.79"/>
  </g>
  <polygon class="st6" points="491.1 -89.79 464.3 -89.79 482.6 41.21 510.9 41.21 503.3 -3.69 491.1 -89.79"/>
  <polygon class="st7" points="575.1 -89.79 562.9 -3.69 533.1 -63.09 512.8 -22.59 519.8 23.31 533.1 -3.39 555.3 41.21 583.6 41.21 601.9 -89.79 575.1 -89.79"/>
</svg>