<?xml version="1.0" encoding="UTF-8"?>
<svg id="Layer_1" xmlns="http://www.w3.org/2000/svg" version="1.1" xmlns:xlink="http://www.w3.org/1999/xlink" viewBox="0 0 1280 334.3">
  <!-- Generator: Adobe Illustrator 29.6.1, SVG Export Plug-In . SVG Version: 2.1.1 Build 9)  -->
  <defs>
    <style>
      .st0 {
        fill: url(#linear-gradient2);
      }

      .st1 {
        fill: url(#linear-gradient10);
      }

      .st2 {
        fill: #fff;
      }

      .st3 {
        fill: url(#linear-gradient1);
      }

      .st4 {
        fill: url(#linear-gradient9);
      }

      .st5 {
        fill: url(#linear-gradient8);
      }

      .st6 {
        fill: url(#linear-gradient11);
      }

      .st7 {
        fill: url(#linear-gradient12);
      }

      .st8 {
        fill: url(#linear-gradient7);
      }

      .st9 {
        fill: url(#linear-gradient4);
      }

      .st10 {
        fill: url(#linear-gradient5);
      }

      .st11 {
        fill: url(#linear-gradient3);
      }

      .st12 {
        fill: url(#linear-gradient6);
      }

      .st13 {
        fill: url(#linear-gradient);
      }
    </style>
    <linearGradient id="linear-gradient" x1="1007.45" y1="231.06" x2="1007.45" y2="94.48" gradientTransform="translate(0 336) scale(1 -1)" gradientUnits="userSpaceOnUse">
      <stop offset="0" stop-color="#fa904f"/>
      <stop offset=".18" stop-color="#ea8a68"/>
      <stop offset=".74" stop-color="#bb79ae"/>
      <stop offset="1" stop-color="#a872ca"/>
    </linearGradient>
    <linearGradient id="linear-gradient1" x1="1156.85" y1="231.06" x2="1156.85" y2="94.48" gradientTransform="translate(0 336) scale(1 -1)" gradientUnits="userSpaceOnUse">
      <stop offset="0" stop-color="#fa904f"/>
      <stop offset=".18" stop-color="#ea8a68"/>
      <stop offset=".74" stop-color="#bb79ae"/>
      <stop offset="1" stop-color="#a872ca"/>
    </linearGradient>
    <linearGradient id="linear-gradient2" x1="1078.95" y1="231.06" x2="1078.95" y2="94.48" gradientTransform="translate(0 336) scale(1 -1)" gradientUnits="userSpaceOnUse">
      <stop offset="0" stop-color="#fa904f"/>
      <stop offset=".18" stop-color="#ea8a68"/>
      <stop offset=".74" stop-color="#bb79ae"/>
      <stop offset="1" stop-color="#a872ca"/>
    </linearGradient>
    <linearGradient id="linear-gradient3" x1="472.95" y1="231.06" x2="472.95" y2="94.48" gradientTransform="translate(0 336) scale(1 -1)" gradientUnits="userSpaceOnUse">
      <stop offset="0" stop-color="#fa904f"/>
      <stop offset=".18" stop-color="#ea8a68"/>
      <stop offset=".74" stop-color="#bb79ae"/>
      <stop offset="1" stop-color="#a872ca"/>
    </linearGradient>
    <linearGradient id="linear-gradient4" x1="134.15" y1="231.06" x2="134.15" y2="94.48" gradientTransform="translate(0 336) scale(1 -1)" gradientUnits="userSpaceOnUse">
      <stop offset="0" stop-color="#fa904f"/>
      <stop offset=".18" stop-color="#ea8a68"/>
      <stop offset=".74" stop-color="#bb79ae"/>
      <stop offset="1" stop-color="#a872ca"/>
    </linearGradient>
    <linearGradient id="linear-gradient5" x1="225.89" y1="250.19" x2="372.94" y2="91.94" gradientTransform="translate(0 336) scale(1 -1)" gradientUnits="userSpaceOnUse">
      <stop offset="0" stop-color="#fa904f"/>
      <stop offset=".18" stop-color="#ea8a68"/>
      <stop offset=".74" stop-color="#bb79ae"/>
      <stop offset="1" stop-color="#a872ca"/>
    </linearGradient>
    <linearGradient id="linear-gradient6" x1="241.95" y1="252.27" x2="351.89" y2="97.52" gradientTransform="translate(0 336) scale(1 -1)" gradientUnits="userSpaceOnUse">
      <stop offset="0" stop-color="#454545"/>
      <stop offset="1" stop-color="#333"/>
    </linearGradient>
    <linearGradient id="linear-gradient7" x1="761.25" y1="231.06" x2="761.25" y2="94.48" gradientTransform="translate(0 336) scale(1 -1)" gradientUnits="userSpaceOnUse">
      <stop offset="0" stop-color="#fa904f"/>
      <stop offset=".18" stop-color="#ea8a68"/>
      <stop offset=".74" stop-color="#bb79ae"/>
      <stop offset="1" stop-color="#a872ca"/>
    </linearGradient>
    <linearGradient id="linear-gradient8" x1="689.8" y1="231.06" x2="689.8" y2="94.48" gradientTransform="translate(0 336) scale(1 -1)" gradientUnits="userSpaceOnUse">
      <stop offset="0" stop-color="#fa904f"/>
      <stop offset=".18" stop-color="#ea8a68"/>
      <stop offset=".74" stop-color="#bb79ae"/>
      <stop offset="1" stop-color="#a872ca"/>
    </linearGradient>
    <linearGradient id="linear-gradient9" x1="831.2" y1="231.06" x2="831.2" y2="94.48" gradientTransform="translate(0 336) scale(1 -1)" gradientUnits="userSpaceOnUse">
      <stop offset="0" stop-color="#fa904f"/>
      <stop offset=".18" stop-color="#ea8a68"/>
      <stop offset=".74" stop-color="#bb79ae"/>
      <stop offset="1" stop-color="#a872ca"/>
    </linearGradient>
    <linearGradient id="linear-gradient10" x1="894.65" y1="231.06" x2="894.65" y2="94.48" gradientTransform="translate(0 336) scale(1 -1)" gradientUnits="userSpaceOnUse">
      <stop offset="0" stop-color="#fa904f"/>
      <stop offset=".18" stop-color="#ea8a68"/>
      <stop offset=".74" stop-color="#bb79ae"/>
      <stop offset="1" stop-color="#a872ca"/>
    </linearGradient>
    <linearGradient id="linear-gradient11" x1="551.7" y1="231.06" x2="551.7" y2="94.48" gradientTransform="translate(0 336) scale(1 -1)" gradientUnits="userSpaceOnUse">
      <stop offset="0" stop-color="#fa904f"/>
      <stop offset=".18" stop-color="#ea8a68"/>
      <stop offset=".74" stop-color="#bb79ae"/>
      <stop offset="1" stop-color="#a872ca"/>
    </linearGradient>
    <linearGradient id="linear-gradient12" x1="621.45" y1="231.06" x2="621.45" y2="94.48" gradientTransform="translate(0 336) scale(1 -1)" gradientUnits="userSpaceOnUse">
      <stop offset="0" stop-color="#fa904f"/>
      <stop offset=".18" stop-color="#ea8a68"/>
      <stop offset=".74" stop-color="#bb79ae"/>
      <stop offset="1" stop-color="#a872ca"/>
    </linearGradient>
  </defs>
  <polygon class="st13" points="1019.9 97.8 993.9 97.8 935.9 230.9 962.9 230.9 1007 129.8 1051.8 230.9 1079 230.9 1019.9 97.8"/>
  <path class="st3" d="M1205.9,141.2c0-23-18.7-41.8-41.8-41.8h-56.3c10.3,5,18.5,13.8,22.8,24.6h33.4c9.5,0,17.2,7.7,17.2,17.2s-7.7,17.2-17.2,17.2h-21.9l32.6,71.2h28.1l-21.1-50.6c14.4-6.7,24.2-21.1,24.2-37.8Z"/>
  <path class="st0" d="M1100.7,179c14.2-6.7,24-21.1,24-37.8,0-23-18.7-41.8-41.8-41.8h-49.7l10.9,24.6h38.8c9.5,0,17.2,7.7,17.2,17.2s-7.7,17.2-17.2,17.2h-21.9l32.6,71.2h28.1l-21-50.6Z"/>
  <path class="st11" d="M444.4,231h-26.6v-26.6h45.2c9.8,0,18.5-3.5,26-10.4s11.6-15.5,12.2-25.8v-.3c0-.3,0-.5.1-.6v-1.3c0-7.6-1.8-14.6-5.5-21.1s-9.3-11.5-16.8-15c-.1,0-.3-.1-.4-.1s-.2-.1-.3-.2c-.1,0-.4-.1-.8-.3-2.3-.9-4.7-1.7-7.2-2.3h-.8c-1.9-.4-4-.6-6.4-.6h-45.2v-26.7h48.8c1,0,1.8,0,2.5.1,16.4,1.5,30.3,8.5,41.7,20.8,11.4,12.4,17.2,27,17.2,43.8v1.8c0,16.9-5.7,31.5-17.2,43.8-11.4,12.4-25.4,19.3-41.7,20.8-.6.1-1.1.2-1.6.2h-23.2Z"/>
  <path class="st9" d="M194.2,99.9l-60,130.9-60.1-130.9h29.3l30.8,66.9,30.7-66.9h29.3Z"/>
  <g>
    <circle class="st10" cx="300.4" cy="166" r="110.2"/>
    <circle class="st12" cx="300.4" cy="166" r="92.9"/>
    <path class="st2" d="M276.8,166.6v-39.7c0-4.1,4.5-6.5,7.9-4.2l29.2,19.4,30.7,20.4c3,2,3,6.5,0,8.5l-30.7,20.4-29.2,19.4c-3.4,2.2-7.9-.2-7.9-4.2v-40Z"/>
  </g>
  <path class="st8" d="M764.8,231c-19.1,0-43.2-7.5-52.9-20.9l20-14.5c2.9,4,18.7,11.3,34.8,10.6,4.8-.2,13.3-1.4,16.6-6.9,3-5,2.1-7.3,1.7-8.2-1.8-4.5-10.5-11.5-29-16.5-19.6-5.3-32.8-20.6-32.8-38.1,0-16.3,11.3-29.9,28.8-34.6,33.7-9,57.6,11.9,58.6,12.8l-8.3,9.2-8.2,9.3c-.6-.5-15.3-12.9-35.7-7.4-6.7,1.8-10.5,5.7-10.5,10.7s3.8,11.3,14.5,14.2c16.9,4.5,38.5,13.6,45.5,31.2,2.7,6.7,4.3,17.4-3.5,30.3-6.9,11.4-20,18.1-36.8,18.8-.9-.1-1.9,0-2.8,0Z"/>
  <rect class="st5" x="676.7" y="99.8" width="26.2" height="131"/>
  <g>
    <polygon class="st4" points="844.6 150.4 844.6 137.3 844.6 99.9 817.8 99.9 817.8 230.8 844.6 230.8 844.6 193.3 844.6 177 844.6 150.4"/>
    <polygon class="st1" points="904.5 99.9 904.5 150.4 858.1 150.4 858.1 177 904.9 177 904.9 230.8 931.2 230.8 931.2 99.9 904.5 99.9"/>
  </g>
  <polygon class="st6" points="555.2 99.9 528.4 99.9 546.7 230.9 575 230.9 567.4 186 555.2 99.9"/>
  <polygon class="st7" points="639.2 99.9 627 186 597.2 126.6 576.9 167.1 583.9 213 597.2 186.3 619.4 230.9 647.7 230.9 666 99.9 639.2 99.9"/>
</svg>