<?xml version="1.0" encoding="UTF-8"?>
<svg id="Layer_1" xmlns="http://www.w3.org/2000/svg" version="1.1" xmlns:xlink="http://www.w3.org/1999/xlink" viewBox="0 0 1280 161.3">
  <!-- Generator: Adobe Illustrator 29.6.1, SVG Export Plug-In . SVG Version: 2.1.1 Build 9)  -->
  <defs>
    <style>
      .st0 {
        fill: url(#linear-gradient2);
      }

      .st1 {
        fill: #fff;
      }

      .st2 {
        fill: url(#linear-gradient1);
      }

      .st3 {
        fill: url(#linear-gradient7);
      }

      .st4 {
        fill: url(#linear-gradient4);
      }

      .st5 {
        fill: url(#linear-gradient5);
      }

      .st6 {
        fill: url(#linear-gradient3);
      }

      .st7 {
        fill: url(#linear-gradient6);
      }

      .st8 {
        fill: url(#linear-gradient);
      }
    </style>
    <linearGradient id="linear-gradient" x1="56.93" y1="85.12" x2="125.48" y2="85.12" gradientTransform="translate(0 164) scale(1 -1)" gradientUnits="userSpaceOnUse">
      <stop offset=".53" stop-color="#efaf14"/>
      <stop offset="1" stop-color="#ce8017"/>
    </linearGradient>
    <linearGradient id="linear-gradient1" x1="142.91" y1="48.44" x2="143.8" y2="48.44" gradientTransform="translate(0 164) scale(1 -1)" gradientUnits="userSpaceOnUse">
      <stop offset=".53" stop-color="#efaf14"/>
      <stop offset="1" stop-color="#ce8017"/>
    </linearGradient>
    <linearGradient id="linear-gradient2" x1="120.82" y1="40.13" x2="152.77" y2="40.13" gradientTransform="translate(0 164) scale(1 -1)" gradientUnits="userSpaceOnUse">
      <stop offset=".53" stop-color="#efaf14"/>
      <stop offset="1" stop-color="#ce8017"/>
    </linearGradient>
    <linearGradient id="linear-gradient3" x1="44.81" y1="120" x2="65.33" y2="120" gradientTransform="translate(0 164) scale(1 -1)" gradientUnits="userSpaceOnUse">
      <stop offset="0" stop-color="#ce8017"/>
      <stop offset=".28" stop-color="#efaf14"/>
      <stop offset=".87" stop-color="#ce8017"/>
    </linearGradient>
    <linearGradient id="linear-gradient4" x1="51.71" y1="119.17" x2="50.97" y2="139.62" gradientTransform="translate(0 164) scale(1 -1)" gradientUnits="userSpaceOnUse">
      <stop offset="0" stop-color="#ce8017"/>
      <stop offset=".38" stop-color="#efaf14"/>
      <stop offset="1" stop-color="#ce8017"/>
    </linearGradient>
    <linearGradient id="linear-gradient5" x1="55.17" y1="130.43" x2="33.26" y2="114.9" gradientTransform="translate(0 164) scale(1 -1)" gradientUnits="userSpaceOnUse">
      <stop offset=".53" stop-color="#efaf14"/>
      <stop offset="1" stop-color="#ce8017"/>
    </linearGradient>
    <linearGradient id="linear-gradient6" x1="88.46" y1="109.25" x2="154.14" y2="109.25" gradientTransform="translate(0 164) scale(1 -1)" gradientUnits="userSpaceOnUse">
      <stop offset=".53" stop-color="#efaf14"/>
      <stop offset="1" stop-color="#ce8017"/>
    </linearGradient>
    <linearGradient id="linear-gradient7" x1="27.21" y1="47.99" x2="92.9" y2="47.99" gradientTransform="translate(0 164) scale(1 -1)" gradientUnits="userSpaceOnUse">
      <stop offset=".53" stop-color="#efaf14"/>
      <stop offset="1" stop-color="#ce8017"/>
    </linearGradient>
  </defs>
  <path class="st8" d="M123.37,62.75c-1.93-2.16-4.79-3.13-7.64-2.61l-24.82,4.56,11.53-16.93c2.95-.1,5.3-2.51,5.3-5.48s-2.46-5.49-5.49-5.49-5.49,2.46-5.49,5.49c0,.89.22,1.73.59,2.47l-10.37,15.24-6.98-8.07c.15-.5.23-1.03.23-1.57,0-3.03-2.46-5.49-5.49-5.49s-5.49,2.46-5.49,5.49,2.46,5.49,5.49,5.49c.27,0,.54-.03.8-.06l8.76,10.13-20.6,3.78c-3.92.72-6.77,4.14-6.77,8.12v24.3c0,3.71,2.5,6.99,6.08,7.97l38.78,10.58c.74.2,1.49.3,2.21.3,3.56,0,6.8-2.31,7.87-5.91l13.26-44.44c.83-2.77.17-5.72-1.76-7.87ZM119.49,68.94l-13.26,44.44c-.37,1.24-1.64,1.94-2.88,1.6l-38.78-10.58c-1.02-.28-1.74-1.22-1.74-2.28v-24.3c0-1.14.81-2.12,1.93-2.32l52.03-9.56c.16-.03.31-.04.45-.04.91,0,1.5.53,1.73.79.28.29.86,1.1.52,2.25Z"/>
  <path class="st2" d="M142.91,115.4l.89.31c-.53-.23-.89-.31-.89-.31Z"/>
  <path class="st0" d="M149.97,116.64c-1.56-.77-3.95-.96-6.18-.93,1.22.53,3.33,1.85,3.94,4.89h0c.31,1.52.24,3.44-.49,5.88h0c-.24,1.64-.73,3.37-1.46,5-2.18,4.83-4.05,5.05-5.57,5.16s-11.7,0-11.7,0c0,0-3.03.35-3.84-3.82-.81-4.18-.73-6.96-.06-9.03.58-1.79,4.05-3.16,12.06-4.64,0,0,6.03-1.1,8.72.33.53.28.95.73,1.28,1.32-1.13-5.05-6.72-4.81-7.9-4.7-.02,0-.04.01-.06.01-.54-.77-1.43-1.67-2.79-2.01l2.91-3.34c.08.02.16.03.25.03.63,0,1.14-.51,1.14-1.14s-.51-1.14-1.14-1.14-1.14.51-1.14,1.14c0,.14.03.28.08.4l-3.41,3.92c-.26.01-.53.03-.82.08-.17.03-.33.07-.49.11l-1.57-1.59c.03-.1.05-.2.05-.3,0-.61-.49-1.1-1.1-1.1s-1.1.49-1.1,1.1.49,1.1,1.1,1.1c.1,0,.2-.02.29-.04l1.23,1.25c-1.73.89-2.35,2.49-2.56,3.45-.02.01-.03.01-.05.02-5.26,1.49-7.79,3.14-8.28,4.75-.7,2.3-.7,6.22.42,11.54,1.12,5.31,4.96,4.82,4.96,4.82,0,0,14.05.14,16.15,0,2.1-.14,4.68-.42,7.69-6.57,3.02-6.16,3.16-14.14-.55-15.95Z"/>
  <polygon class="st6" points="65.33 44.01 44.81 55.85 44.81 52.23 59.06 44.01 55.71 42.08 44.81 35.78 44.81 32.16 58.84 40.26 65.33 44.01"/>
  <polygon class="st4" points="61.95 38.47 58.84 40.26 44.81 32.16 44.81 48.36 41.43 50.32 41.43 26.63 61.95 38.47"/>
  <polygon class="st5" points="59.06 44.01 44.81 52.23 38.55 55.85 38.55 32.16 41.43 33.83 41.43 50.32 44.81 48.36 55.71 42.08 59.06 44.01"/>
  <path class="st7" d="M151.93,87.6c-1.22,0-2.22-.99-2.22-2.22,0-32.55-26.48-59.03-59.03-59.03-1.22,0-2.22-.99-2.22-2.22s.99-2.22,2.22-2.22c34.99,0,63.46,28.47,63.46,63.46.01,1.24-.99,2.23-2.21,2.23Z"/>
  <path class="st3" d="M90.68,148.85c-34.99,0-63.47-28.47-63.47-63.46,0-1.22.99-2.22,2.22-2.22s2.22.99,2.22,2.22c0,32.55,26.48,59.03,59.03,59.03,1.22,0,2.22.99,2.22,2.22s-.99,2.21-2.22,2.21Z"/>
  <circle class="st1" cx="78.38" cy="25.37" r="2.77"/>
  <circle class="st1" cx="67.41" cy="28.72" r="2.77"/>
  <circle class="st1" cx="34.11" cy="61.88" r="2.77"/>
  <circle class="st1" cx="30.6" cy="73.42" r="2.77"/>
  <circle class="st1" cx="115.03" cy="141.59" r="2.77"/>
  <circle class="st1" cx="103.54" cy="145.28" r="2.77"/>
  <circle class="st1" cx="147.67" cy="107.86" r="2.77"/>
  <circle class="st1" cx="150.8" cy="97.13" r="2.77"/>
  <path class="st1" d="M98.86,86.38l-11.92-6.88c-3.15-1.82-7.1.46-7.1,4.1v13.76c0,3.64,3.94,5.92,7.1,4.1l11.92-6.88c3.15-1.82,3.15-6.38,0-8.2Z"/>
  <g>
    <path class="st1" d="M134.55,125.54v1.58h-2.61v4.39h-1.61v-4.39h-2.62v-1.58s6.84,0,6.84,0Z"/>
    <path class="st1" d="M135.07,125.8c-.02-.05-.04-.09-.06-.13s-.03-.09-.04-.13h1.89c.02.08.04.15.06.21l1.78,4.12c.03.06.07.11.11.14s.09.04.15.04c.05,0,.1,0,.14-.04s.08-.07.11-.15l1.77-4.12c.03-.06.05-.13.07-.21h1.86c0,.05-.03.09-.04.13s-.03.09-.06.13l-2.14,4.73c-.17.37-.39.65-.67.83-.28.18-.63.27-1.05.27-.82,0-1.4-.36-1.73-1.09l-2.15-4.73Z"/>
  </g>
</svg>