<?xml version="1.0" encoding="UTF-8"?>
<svg id="Layer_1" xmlns="http://www.w3.org/2000/svg" version="1.1" xmlns:xlink="http://www.w3.org/1999/xlink" viewBox="0 0 1000 1000">
  <!-- Generator: Adobe Illustrator 29.6.1, SVG Export Plug-In . SVG Version: 2.1.1 Build 9)  -->
  <defs>
    <style>
      .st0 {
        fill: url(#linear-gradient2);
      }

      .st1 {
        fill: #fff;
      }

      .st2 {
        fill: url(#linear-gradient1);
      }

      .st3 {
        fill: url(#linear-gradient7);
      }

      .st4 {
        fill: url(#linear-gradient4);
      }

      .st5 {
        fill: url(#linear-gradient5);
      }

      .st6 {
        fill: url(#linear-gradient3);
      }

      .st7 {
        fill: url(#linear-gradient6);
      }

      .st8 {
        fill: url(#linear-gradient);
      }
    </style>
    <linearGradient id="linear-gradient" x1="57.8" y1="210.79" x2="545.07" y2="210.79" gradientTransform="translate(202.34 243.04)" gradientUnits="userSpaceOnUse">
      <stop offset=".53" stop-color="#eeaf1f"/>
      <stop offset="1" stop-color="#cd8129"/>
    </linearGradient>
    <linearGradient id="linear-gradient1" x1="668.95" y1="471.45" x2="675.28" y2="471.45" xlink:href="#linear-gradient"/>
    <linearGradient id="linear-gradient2" x1="511.99" y1="530.52" x2="739.11" y2="530.52" xlink:href="#linear-gradient"/>
    <linearGradient id="linear-gradient3" x1="-28.35" y1="-37.14" x2="117.51" y2="-37.14" gradientTransform="translate(202.34 243.04)" gradientUnits="userSpaceOnUse">
      <stop offset="0" stop-color="#cd8129"/>
      <stop offset=".28" stop-color="#eeaf1f"/>
      <stop offset=".87" stop-color="#cd8129"/>
    </linearGradient>
    <linearGradient id="linear-gradient4" x1="20.66" y1="-31.27" x2="15.4" y2="-176.63" gradientTransform="translate(202.34 243.04)" gradientUnits="userSpaceOnUse">
      <stop offset="0" stop-color="#cd8129"/>
      <stop offset=".38" stop-color="#eeaf1f"/>
      <stop offset="1" stop-color="#cd8129"/>
    </linearGradient>
    <linearGradient id="linear-gradient5" x1="45.3" y1="-111.29" x2="-110.44" y2="-.91" xlink:href="#linear-gradient"/>
    <linearGradient id="linear-gradient6" x1="281.92" y1="39.27" x2="748.77" y2="39.27" xlink:href="#linear-gradient"/>
    <linearGradient id="linear-gradient7" x1="-153.45" y1="474.68" x2="313.48" y2="474.68" xlink:href="#linear-gradient"/>
  </defs>
  <path class="st8" d="M732.4,339.14c-13.72-15.35-34.05-22.25-54.31-18.55l-176.42,32.41,81.96-120.34c20.97-.71,37.67-17.84,37.67-38.95s-17.49-39.02-39.02-39.02-39.02,17.49-39.02,39.02c0,6.33,1.56,12.3,4.19,17.56l-73.71,108.33-49.61-57.36c1.07-3.55,1.63-7.32,1.63-11.16,0-21.54-17.49-39.02-39.02-39.02s-39.02,17.49-39.02,39.02,17.49,39.02,39.02,39.02c1.92,0,3.84-.21,5.69-.43l62.27,72-146.43,26.87c-27.86,5.12-48.12,29.43-48.12,57.72v172.73c0,26.37,17.77,49.69,43.22,56.65l275.65,75.2c5.26,1.42,10.59,2.13,15.71,2.13,25.3,0,48.33-16.42,55.94-42.01l94.25-315.88c5.9-19.69,1.21-40.66-12.51-55.94ZM704.82,383.14l-94.25,315.88c-2.63,8.81-11.66,13.79-20.47,11.37l-275.65-75.2c-7.25-1.99-12.37-8.67-12.37-16.21v-172.73c0-8.1,5.76-15.07,13.72-16.49l369.83-67.95c1.14-.21,2.2-.28,3.2-.28,6.47,0,10.66,3.77,12.3,5.62,1.99,2.06,6.11,7.82,3.7,15.99Z"/>
  <path class="st2" d="M871.29,713.38l6.33,2.2c-3.77-1.63-6.33-2.2-6.33-2.2Z"/>
  <path class="st0" d="M921.47,722.2c-11.09-5.47-28.08-6.82-43.93-6.61,8.67,3.77,23.67,13.15,28.01,34.76h0c2.2,10.8,1.71,24.45-3.48,41.8h0c-1.71,11.66-5.19,23.95-10.38,35.54-15.5,34.33-28.79,35.9-39.59,36.68-10.8.78-83.16,0-83.16,0,0,0-21.54,2.49-27.3-27.15-5.76-29.71-5.19-49.47-.43-64.19,4.12-12.72,28.79-22.46,85.72-32.98,0,0,42.86-7.82,61.98,2.35,3.77,1.99,6.75,5.19,9.1,9.38-8.03-35.9-47.77-34.19-56.15-33.41-.14,0-.28.07-.43.07-3.84-5.47-10.16-11.87-19.83-14.29l20.68-23.74c.57.14,1.14.21,1.78.21,4.48,0,8.1-3.63,8.1-8.1s-3.63-8.1-8.1-8.1-8.1,3.63-8.1,8.1c0,1,.21,1.99.57,2.84l-24.24,27.86c-1.85.07-3.77.21-5.83.57-1.21.21-2.35.5-3.48.78l-11.16-11.3c.21-.71.36-1.42.36-2.13,0-4.34-3.48-7.82-7.82-7.82s-7.82,3.48-7.82,7.82,3.48,7.82,7.82,7.82c.71,0,1.42-.14,2.06-.28l8.74,8.89c-12.3,6.33-16.7,17.7-18.2,24.52-.14.07-.21.07-.36.14-37.39,10.59-55.37,22.32-58.85,33.76-4.98,16.35-4.98,44.21,2.99,82.03,7.96,37.74,35.26,34.26,35.26,34.26,0,0,99.87,1,114.8,0s33.27-2.99,54.66-46.7c21.47-43.79,22.46-100.51-3.91-113.37h-.07Z"/>
  <polygon class="st6" points="319.85 205.94 173.99 290.1 173.99 264.37 275.28 205.94 251.47 192.22 173.99 147.44 173.99 121.71 273.71 179.28 319.85 205.94"/>
  <polygon class="st4" points="295.82 166.56 273.71 179.28 173.99 121.71 173.99 236.86 149.96 250.79 149.96 82.4 295.82 166.56"/>
  <polygon class="st5" points="275.28 205.94 173.99 264.37 129.49 290.1 129.49 121.71 149.96 133.58 149.96 250.79 173.99 236.86 251.47 192.22 275.28 205.94"/>
  <path class="st7" d="M935.41,515.78c-8.67,0-15.78-7.04-15.78-15.78,0-231.37-188.22-419.59-419.59-419.59-8.67,0-15.78-7.04-15.78-15.78s7.04-15.78,15.78-15.78c248.71,0,451.08,202.37,451.08,451.08.07,8.81-7.04,15.85-15.71,15.85h0Z"/>
  <path class="st3" d="M500.04,951.15c-248.71,0-451.15-202.37-451.15-451.08,0-8.67,7.04-15.78,15.78-15.78s15.78,7.04,15.78,15.78c0,231.37,188.22,419.59,419.59,419.59,8.67,0,15.78,7.04,15.78,15.78s-7.04,15.71-15.78,15.71h0Z"/>
  <circle class="st1" cx="412.61" cy="73.44" r="19.69"/>
  <circle class="st1" cx="334.63" cy="97.26" r="19.69"/>
  <circle class="st1" cx="97.93" cy="332.96" r="19.69"/>
  <circle class="st1" cx="72.98" cy="414.99" r="19.69" transform="translate(-40.54 9.21) rotate(-5.65)"/>
  <circle class="st1" cx="673.12" cy="899.55" r="19.69"/>
  <circle class="st1" cx="591.45" cy="925.77" r="19.69"/>
  <circle class="st1" cx="905.12" cy="659.79" r="19.69"/>
  <circle class="st1" cx="927.37" cy="583.52" r="19.69"/>
  <path class="st1" d="M558.18,507.11l-84.73-48.9c-22.39-12.94-50.47,3.27-50.47,29.14v97.81c0,25.87,28.01,42.08,50.47,29.14l84.73-48.9c22.39-12.94,22.39-45.35,0-58.29Z"/>
  <g>
    <path class="st1" d="M811.87,785.46v11.23h-18.55v31.2h-11.44v-31.2h-18.62v-11.23s48.62,0,48.62,0Z"/>
    <path class="st1" d="M815.56,787.31c-.14-.36-.28-.64-.43-.92s-.21-.64-.28-.92h13.43c.14.57.28,1.07.43,1.49l12.65,29.29c.21.43.5.78.78,1s.64.28,1.07.28c.36,0,.71,0,1-.28s.57-.5.78-1.07l12.58-29.29c.21-.43.36-.92.5-1.49h13.22c0,.36-.21.64-.28.92s-.21.64-.43.92l-15.21,33.62c-1.21,2.63-2.77,4.62-4.76,5.9-1.99,1.28-4.48,1.92-7.46,1.92-5.83,0-9.95-2.56-12.3-7.75l-15.28-33.62h0Z"/>
  </g>
</svg>